# xmcd
#
# Track frame offsets:
#	150
#	27280
#	37747
#	66025
#	76052
#	105657
#	120757
#	139815
#	159557
#	171772
#	190047
#	208560
#	234142
#
# Disc length: 3313 seconds
#
# Revision: 0
# Processed by: cddbd v1.4PL0 Copyright (c) Steve Scherf et al.
# Submitted via: EasyCDDAExtractor 5.0.5.1
#
DISCID=920cef0d
DTITLE=Newell Oler - Mood Country
DYEAR=1999
DGENRE=Country
TTITLE0=Medley: Crazy/I Love You So Much It Hurts Me
TTITLE1=Lady
TTITLE2=You Saw Me Crying In The Chapel
TTITLE3=Seeing The Right Love Go Wrong
TTITLE4=The Twelfth Of Never
TTITLE5=Behind Closed Doors
TTITLE6=Sweet Maria Don't You Cry
TTITLE7=Medley: Tennessee Waltz/Can I Have This Dance
TTITLE8=Tie A Yellow Ribbon
TTITLE9=He'll Have To Go
TTITLE10=Say You'll Stay Until Tomorrow
TTITLE11=I Can't Stop Loving You
TTITLE12=Raining In My Heart
EXTD=
EXTT0=
EXTT1=
EXTT2=
EXTT3=
EXTT4=
EXTT5=
EXTT6=
EXTT7=
EXTT8=
EXTT9=
EXTT10=
EXTT11=
EXTT12=
PLAYORDER=
